<mxfile host="app.diagrams.net" modified="2024-02-28T07:35:34.975Z" agent="Mozilla/5.0 (Windows NT 10.0; Win64; x64) AppleWebKit/537.36 (KHTML, like Gecko) Chrome/122.0.0.0 Safari/537.36" etag="dlsiskwCkg0GHPet_oUX" version="23.1.6" type="github" pages="2">
  <diagram name="Multi domain" id="JmBmETKlxDjm6wiNJbzR">
    <mxGraphModel dx="1018" dy="395" grid="1" gridSize="10" guides="1" tooltips="1" connect="1" arrows="1" fold="1" page="1" pageScale="1" pageWidth="827" pageHeight="1169" math="0" shadow="0">
      <root>
        <mxCell id="0" />
        <mxCell id="1" parent="0" />
        <mxCell id="CfoEfONxDjZkqh8xfGy8-1" value="PayWheel App" style="rounded=0;whiteSpace=wrap;html=1;" vertex="1" parent="1">
          <mxGeometry x="264" y="110" width="300" height="90" as="geometry" />
        </mxCell>
        <mxCell id="CfoEfONxDjZkqh8xfGy8-2" value="" style="ellipse;whiteSpace=wrap;html=1;" vertex="1" parent="1">
          <mxGeometry x="340" y="280" width="170" height="90" as="geometry" />
        </mxCell>
        <mxCell id="mmBnS8M5872FTu6UA8FT-7" style="edgeStyle=orthogonalEdgeStyle;rounded=0;orthogonalLoop=1;jettySize=auto;html=1;exitX=1;exitY=0.5;exitDx=0;exitDy=0;exitPerimeter=0;entryX=0.012;entryY=0.611;entryDx=0;entryDy=0;entryPerimeter=0;" edge="1" parent="1" source="mmBnS8M5872FTu6UA8FT-2" target="CfoEfONxDjZkqh8xfGy8-2">
          <mxGeometry relative="1" as="geometry">
            <mxPoint x="420" y="334.9999999999999" as="targetPoint" />
          </mxGeometry>
        </mxCell>
        <mxCell id="mmBnS8M5872FTu6UA8FT-2" value="Master DB" style="shape=cylinder3;whiteSpace=wrap;html=1;boundedLbl=1;backgroundOutline=1;size=15;" vertex="1" parent="1">
          <mxGeometry x="70" y="280" width="80" height="110" as="geometry" />
        </mxCell>
        <mxCell id="mmBnS8M5872FTu6UA8FT-3" style="edgeStyle=orthogonalEdgeStyle;rounded=0;orthogonalLoop=1;jettySize=auto;html=1;entryX=1.036;entryY=0.417;entryDx=0;entryDy=0;entryPerimeter=0;" edge="1" parent="1" source="CfoEfONxDjZkqh8xfGy8-2" target="mmBnS8M5872FTu6UA8FT-2">
          <mxGeometry relative="1" as="geometry">
            <mxPoint x="160" y="325" as="targetPoint" />
          </mxGeometry>
        </mxCell>
        <mxCell id="mmBnS8M5872FTu6UA8FT-6" value="Sub Domain" style="text;html=1;align=center;verticalAlign=middle;whiteSpace=wrap;rounded=0;" vertex="1" parent="1">
          <mxGeometry x="220" y="290" width="60" height="30" as="geometry" />
        </mxCell>
        <mxCell id="mmBnS8M5872FTu6UA8FT-8" value="C2 DB" style="shape=cylinder3;whiteSpace=wrap;html=1;boundedLbl=1;backgroundOutline=1;size=15;" vertex="1" parent="1">
          <mxGeometry x="395" y="440" width="60" height="80" as="geometry" />
        </mxCell>
        <mxCell id="mmBnS8M5872FTu6UA8FT-9" value="C3 DB" style="shape=cylinder3;whiteSpace=wrap;html=1;boundedLbl=1;backgroundOutline=1;size=15;" vertex="1" parent="1">
          <mxGeometry x="564" y="440" width="60" height="80" as="geometry" />
        </mxCell>
        <mxCell id="mmBnS8M5872FTu6UA8FT-10" value="C1 DB" style="shape=cylinder3;whiteSpace=wrap;html=1;boundedLbl=1;backgroundOutline=1;size=15;" vertex="1" parent="1">
          <mxGeometry x="230" y="440" width="60" height="80" as="geometry" />
        </mxCell>
        <mxCell id="mmBnS8M5872FTu6UA8FT-12" value="" style="endArrow=classic;startArrow=classic;html=1;rounded=0;entryX=0;entryY=1;entryDx=0;entryDy=0;" edge="1" parent="1" target="CfoEfONxDjZkqh8xfGy8-2">
          <mxGeometry width="50" height="50" relative="1" as="geometry">
            <mxPoint x="264" y="440" as="sourcePoint" />
            <mxPoint x="314" y="390" as="targetPoint" />
          </mxGeometry>
        </mxCell>
        <mxCell id="mmBnS8M5872FTu6UA8FT-13" value="" style="endArrow=classic;startArrow=classic;html=1;rounded=0;entryX=1;entryY=1;entryDx=0;entryDy=0;exitX=0.5;exitY=0;exitDx=0;exitDy=0;exitPerimeter=0;" edge="1" parent="1" source="mmBnS8M5872FTu6UA8FT-9" target="CfoEfONxDjZkqh8xfGy8-2">
          <mxGeometry width="50" height="50" relative="1" as="geometry">
            <mxPoint x="514" y="420" as="sourcePoint" />
            <mxPoint x="564" y="370" as="targetPoint" />
          </mxGeometry>
        </mxCell>
        <mxCell id="mmBnS8M5872FTu6UA8FT-14" value="" style="endArrow=classic;startArrow=classic;html=1;rounded=0;entryX=0.5;entryY=1;entryDx=0;entryDy=0;exitX=0.5;exitY=0;exitDx=0;exitDy=0;exitPerimeter=0;" edge="1" parent="1" source="mmBnS8M5872FTu6UA8FT-8" target="CfoEfONxDjZkqh8xfGy8-2">
          <mxGeometry width="50" height="50" relative="1" as="geometry">
            <mxPoint x="410" y="430" as="sourcePoint" />
            <mxPoint x="460" y="380" as="targetPoint" />
          </mxGeometry>
        </mxCell>
        <mxCell id="mmBnS8M5872FTu6UA8FT-15" value="Customer&#39;s DB" style="text;html=1;align=center;verticalAlign=middle;whiteSpace=wrap;rounded=0;" vertex="1" parent="1">
          <mxGeometry x="170" y="450" width="350" height="30" as="geometry" />
        </mxCell>
      </root>
    </mxGraphModel>
  </diagram>
  <diagram id="7RYtt0uI1fsFh6LfGeMq" name="Page-2">
    <mxGraphModel dx="1120" dy="434" grid="1" gridSize="10" guides="1" tooltips="1" connect="1" arrows="1" fold="1" page="1" pageScale="1" pageWidth="827" pageHeight="1169" math="0" shadow="0">
      <root>
        <mxCell id="0" />
        <mxCell id="1" parent="0" />
      </root>
    </mxGraphModel>
  </diagram>
</mxfile>
